<mxfile host="Electron" modified="2024-06-23T08:23:01.702Z" agent="Mozilla/5.0 (Macintosh; Intel Mac OS X 10_15_7) AppleWebKit/537.36 (KHTML, like Gecko) draw.io/24.6.1 Chrome/124.0.6367.207 Electron/30.0.6 Safari/537.36" version="24.6.1" etag="yZnvw7QYcuSPSjSkQtX7" type="device">
  <diagram id="c76pFDDTY7rbW1FkIgoF" name="ページ1">
    <mxGraphModel dx="954" dy="614" grid="1" gridSize="10" guides="1" tooltips="1" connect="1" arrows="1" fold="1" page="1" pageScale="1" pageWidth="827" pageHeight="1169" math="0" shadow="0">
      <root>
        <mxCell id="0" />
        <mxCell id="1" parent="0" />
        <mxCell id="gb1FWG8hKwzva2jhEFQj-46" value="" style="rounded=1;whiteSpace=wrap;html=1;arcSize=3;strokeColor=default;align=center;verticalAlign=middle;fontFamily=Helvetica;fontSize=12;fontColor=default;fillColor=default;dashed=1;" vertex="1" parent="1">
          <mxGeometry x="140" y="38.85" width="660" height="421.15" as="geometry" />
        </mxCell>
        <mxCell id="gb1FWG8hKwzva2jhEFQj-21" value="" style="rounded=1;whiteSpace=wrap;html=1;arcSize=3;" vertex="1" parent="1">
          <mxGeometry x="250" y="80" width="320" height="330" as="geometry" />
        </mxCell>
        <mxCell id="gb1FWG8hKwzva2jhEFQj-22" value="" style="rounded=1;whiteSpace=wrap;html=1;arcSize=8;strokeColor=default;align=center;verticalAlign=middle;fontFamily=Helvetica;fontSize=12;fontColor=default;fillColor=default;dashed=1;" vertex="1" parent="1">
          <mxGeometry x="420" y="150" width="140" height="100" as="geometry" />
        </mxCell>
        <mxCell id="gb1FWG8hKwzva2jhEFQj-36" style="edgeStyle=orthogonalEdgeStyle;rounded=0;orthogonalLoop=1;jettySize=auto;html=1;" edge="1" parent="1" source="gb1FWG8hKwzva2jhEFQj-1" target="gb1FWG8hKwzva2jhEFQj-16">
          <mxGeometry relative="1" as="geometry" />
        </mxCell>
        <mxCell id="gb1FWG8hKwzva2jhEFQj-1" value="Admin VM&lt;div&gt;(Linux)&lt;/div&gt;" style="image;aspect=fixed;html=1;points=[];align=center;fontSize=12;image=img/lib/azure2/compute/Virtual_Machine.svg;" vertex="1" parent="1">
          <mxGeometry x="473.83" y="185" width="32.35" height="30" as="geometry" />
        </mxCell>
        <mxCell id="gb1FWG8hKwzva2jhEFQj-37" style="edgeStyle=orthogonalEdgeStyle;rounded=0;orthogonalLoop=1;jettySize=auto;html=1;" edge="1" parent="1" source="gb1FWG8hKwzva2jhEFQj-2" target="gb1FWG8hKwzva2jhEFQj-4">
          <mxGeometry relative="1" as="geometry" />
        </mxCell>
        <mxCell id="gb1FWG8hKwzva2jhEFQj-2" value="Web Browser" style="image;aspect=fixed;html=1;points=[];align=center;fontSize=12;image=img/lib/azure2/general/Browser.svg;" vertex="1" parent="1">
          <mxGeometry x="70" y="242.20000000000002" width="32" height="25.6" as="geometry" />
        </mxCell>
        <mxCell id="gb1FWG8hKwzva2jhEFQj-4" value="Basion PIP" style="image;aspect=fixed;html=1;points=[];align=center;fontSize=12;image=img/lib/azure2/networking/Public_IP_Addresses.svg;" vertex="1" parent="1">
          <mxGeometry x="168" y="242.19999999999996" width="32" height="25.6" as="geometry" />
        </mxCell>
        <mxCell id="gb1FWG8hKwzva2jhEFQj-5" value="VNet" style="image;aspect=fixed;html=1;points=[];align=left;fontSize=12;image=img/lib/azure2/networking/Virtual_Networks.svg;labelPosition=right;verticalLabelPosition=middle;verticalAlign=middle;" vertex="1" parent="1">
          <mxGeometry x="260" y="88.9" width="32" height="19.1" as="geometry" />
        </mxCell>
        <mxCell id="gb1FWG8hKwzva2jhEFQj-6" value="" style="image;aspect=fixed;html=1;points=[];align=left;fontSize=12;image=img/lib/azure2/networking/Subnet.svg;labelPosition=right;verticalLabelPosition=middle;verticalAlign=middle;" vertex="1" parent="1">
          <mxGeometry x="420" y="158.63" width="25" height="14.97" as="geometry" />
        </mxCell>
        <mxCell id="gb1FWG8hKwzva2jhEFQj-42" style="edgeStyle=orthogonalEdgeStyle;rounded=0;orthogonalLoop=1;jettySize=auto;html=1;" edge="1" parent="1" source="gb1FWG8hKwzva2jhEFQj-16" target="gb1FWG8hKwzva2jhEFQj-41">
          <mxGeometry relative="1" as="geometry">
            <Array as="points">
              <mxPoint x="490" y="20" />
              <mxPoint x="672" y="20" />
            </Array>
          </mxGeometry>
        </mxCell>
        <mxCell id="gb1FWG8hKwzva2jhEFQj-16" value="NAT Gateway" style="image;aspect=fixed;html=1;points=[];align=center;fontSize=12;image=img/lib/azure2/networking/NAT.svg;" vertex="1" parent="1">
          <mxGeometry x="475" y="88.9" width="30" height="30" as="geometry" />
        </mxCell>
        <mxCell id="gb1FWG8hKwzva2jhEFQj-23" value="" style="rounded=1;whiteSpace=wrap;html=1;arcSize=3;strokeColor=default;align=center;verticalAlign=middle;fontFamily=Helvetica;fontSize=12;fontColor=default;fillColor=default;dashed=1;" vertex="1" parent="1">
          <mxGeometry x="270" y="150" width="130" height="210" as="geometry" />
        </mxCell>
        <mxCell id="gb1FWG8hKwzva2jhEFQj-35" style="edgeStyle=orthogonalEdgeStyle;rounded=0;orthogonalLoop=1;jettySize=auto;html=1;" edge="1" parent="1" source="gb1FWG8hKwzva2jhEFQj-3" target="gb1FWG8hKwzva2jhEFQj-1">
          <mxGeometry relative="1" as="geometry">
            <Array as="points">
              <mxPoint x="410" y="255" />
              <mxPoint x="410" y="210" />
            </Array>
          </mxGeometry>
        </mxCell>
        <mxCell id="gb1FWG8hKwzva2jhEFQj-3" value="Basion" style="image;aspect=fixed;html=1;points=[];align=center;fontSize=12;image=img/lib/azure2/networking/Bastions.svg;" vertex="1" parent="1">
          <mxGeometry x="322.2" y="239.99999999999997" width="25.59" height="30" as="geometry" />
        </mxCell>
        <mxCell id="gb1FWG8hKwzva2jhEFQj-7" value="" style="image;aspect=fixed;html=1;points=[];align=left;fontSize=12;image=img/lib/azure2/networking/Subnet.svg;labelPosition=right;verticalLabelPosition=middle;verticalAlign=middle;" vertex="1" parent="1">
          <mxGeometry x="270" y="158.63" width="25" height="14.97" as="geometry" />
        </mxCell>
        <mxCell id="gb1FWG8hKwzva2jhEFQj-15" value="" style="image;aspect=fixed;html=1;points=[];align=left;fontSize=12;image=img/lib/azure2/networking/Network_Security_Groups.svg;labelPosition=right;verticalLabelPosition=middle;verticalAlign=middle;" vertex="1" parent="1">
          <mxGeometry x="295" y="156.39999999999995" width="16" height="19.43" as="geometry" />
        </mxCell>
        <mxCell id="gb1FWG8hKwzva2jhEFQj-31" style="edgeStyle=orthogonalEdgeStyle;rounded=0;orthogonalLoop=1;jettySize=auto;html=1;" edge="1" parent="1" source="gb1FWG8hKwzva2jhEFQj-4" target="gb1FWG8hKwzva2jhEFQj-3">
          <mxGeometry relative="1" as="geometry" />
        </mxCell>
        <mxCell id="gb1FWG8hKwzva2jhEFQj-29" value="" style="rounded=1;whiteSpace=wrap;html=1;arcSize=8;strokeColor=default;align=center;verticalAlign=middle;fontFamily=Helvetica;fontSize=12;fontColor=default;fillColor=default;dashed=1;" vertex="1" parent="1">
          <mxGeometry x="420" y="260" width="140" height="100" as="geometry" />
        </mxCell>
        <mxCell id="gb1FWG8hKwzva2jhEFQj-9" value="Private Link" style="image;aspect=fixed;html=1;points=[];align=center;fontSize=12;image=img/lib/azure2/networking/Private_Link.svg;" vertex="1" parent="1">
          <mxGeometry x="655.3100000000001" y="295" width="32.73" height="30" as="geometry" />
        </mxCell>
        <mxCell id="gb1FWG8hKwzva2jhEFQj-24" style="edgeStyle=orthogonalEdgeStyle;rounded=0;orthogonalLoop=1;jettySize=auto;html=1;" edge="1" parent="1" source="gb1FWG8hKwzva2jhEFQj-10" target="gb1FWG8hKwzva2jhEFQj-9">
          <mxGeometry relative="1" as="geometry" />
        </mxCell>
        <mxCell id="gb1FWG8hKwzva2jhEFQj-10" value="PE for Keyvault" style="image;aspect=fixed;html=1;points=[];align=center;fontSize=12;image=img/lib/azure2/networking/Private_Endpoint.svg;" vertex="1" parent="1">
          <mxGeometry x="480" y="294.99999999999994" width="32.73" height="30" as="geometry" />
        </mxCell>
        <mxCell id="gb1FWG8hKwzva2jhEFQj-11" value="KeyVault (SSH key)&lt;div&gt;Protected from internet access by Private Link&lt;/div&gt;" style="image;aspect=fixed;html=1;points=[];align=center;fontSize=12;image=img/lib/azure2/security/Key_Vaults.svg;" vertex="1" parent="1">
          <mxGeometry x="656.6700000000001" y="380.00000000000006" width="30" height="30" as="geometry" />
        </mxCell>
        <mxCell id="gb1FWG8hKwzva2jhEFQj-25" style="edgeStyle=orthogonalEdgeStyle;rounded=0;orthogonalLoop=1;jettySize=auto;html=1;" edge="1" parent="1" source="gb1FWG8hKwzva2jhEFQj-9" target="gb1FWG8hKwzva2jhEFQj-11">
          <mxGeometry relative="1" as="geometry">
            <mxPoint x="810" y="390" as="targetPoint" />
          </mxGeometry>
        </mxCell>
        <mxCell id="gb1FWG8hKwzva2jhEFQj-27" value="" style="image;aspect=fixed;html=1;points=[];align=left;fontSize=12;image=img/lib/azure2/networking/Subnet.svg;labelPosition=right;verticalLabelPosition=middle;verticalAlign=middle;" vertex="1" parent="1">
          <mxGeometry x="420" y="270" width="25" height="14.97" as="geometry" />
        </mxCell>
        <mxCell id="gb1FWG8hKwzva2jhEFQj-33" style="edgeStyle=orthogonalEdgeStyle;rounded=0;orthogonalLoop=1;jettySize=auto;html=1;" edge="1" parent="1" source="gb1FWG8hKwzva2jhEFQj-3" target="gb1FWG8hKwzva2jhEFQj-10">
          <mxGeometry relative="1" as="geometry">
            <Array as="points">
              <mxPoint x="410" y="255" />
              <mxPoint x="410" y="310" />
            </Array>
          </mxGeometry>
        </mxCell>
        <mxCell id="gb1FWG8hKwzva2jhEFQj-41" value="Azure Portal&lt;div&gt;for manage KeyVault from Admin VM&lt;/div&gt;&lt;div&gt;through PE&lt;/div&gt;" style="image;aspect=fixed;html=1;points=[];align=center;fontSize=12;image=img/lib/azure2/general/Management_Portal.svg;" vertex="1" parent="1">
          <mxGeometry x="652.93" y="88.9" width="37.5" height="30" as="geometry" />
        </mxCell>
        <mxCell id="gb1FWG8hKwzva2jhEFQj-43" value="Private zone for PE" style="image;aspect=fixed;html=1;points=[];align=left;fontSize=12;image=img/lib/azure2/networking/DNS_Zones.svg;labelPosition=right;verticalLabelPosition=middle;verticalAlign=middle;" vertex="1" parent="1">
          <mxGeometry x="260" y="370" width="32" height="32" as="geometry" />
        </mxCell>
        <mxCell id="gb1FWG8hKwzva2jhEFQj-44" value="" style="image;aspect=fixed;html=1;points=[];align=center;fontSize=12;image=img/lib/azure2/networking/DDoS_Protection_Plans.svg;" vertex="1" parent="1">
          <mxGeometry x="190" y="230.57000000000002" width="16" height="19.43" as="geometry" />
        </mxCell>
        <mxCell id="gb1FWG8hKwzva2jhEFQj-45" value="Microsoft back bone network" style="image;aspect=fixed;html=1;points=[];align=left;fontSize=12;image=img/lib/azure2/other/Azure_A.svg;labelPosition=right;verticalLabelPosition=middle;verticalAlign=middle;" vertex="1" parent="1">
          <mxGeometry x="148" y="50" width="20" height="18.85" as="geometry" />
        </mxCell>
      </root>
    </mxGraphModel>
  </diagram>
</mxfile>
